<mxfile host="e6a20848-5e28-490d-95c8-bb2a7ec73a07" modified="2020-09-26T16:11:19.535Z" agent="5.0 (Windows NT 6.1; Win64; x64) AppleWebKit/537.36 (KHTML, like Gecko) Code/1.47.3 Chrome/78.0.3904.130 Electron/7.3.2 Safari/537.36" etag="qAmerou5lig07rRqlhFs" version="13.1.3">
    <diagram id="6hGFLwfOUW9BJ-s0fimq" name="git">
        <mxGraphModel dx="822" dy="480" grid="1" gridSize="10" guides="1" tooltips="1" connect="1" arrows="1" fold="1" page="1" pageScale="1" pageWidth="827" pageHeight="1169" math="0" shadow="0">
            <root>
                <mxCell id="0"/>
                <mxCell id="1" parent="0"/>
                <mxCell id="2" value="&lt;table cellpadding=&quot;4&quot; cellspacing=&quot;0&quot; border=&quot;1&quot; style=&quot;font-size: 12px ; width: 100% ; height: 100%&quot;&gt;&lt;tbody style=&quot;font-size: 12px&quot;&gt;&lt;tr style=&quot;font-size: 12px&quot;&gt;&lt;th style=&quot;font-size: 12px&quot;&gt;Type&lt;/th&gt;&lt;th style=&quot;font-size: 12px&quot;&gt;Content&lt;/th&gt;&lt;/tr&gt;&lt;tr style=&quot;font-size: 12px&quot;&gt;&lt;td style=&quot;font-size: 12px&quot;&gt;Structure&lt;/td&gt;&lt;td style=&quot;font-size: 12px&quot;&gt;&lt;font face=&quot;Courier New&quot; style=&quot;font-size: 12px&quot;&gt;Project/&lt;br&gt;&amp;nbsp; &amp;nbsp; .gitignore&lt;br style=&quot;font-size: 12px&quot;&gt;&amp;nbsp; &amp;nbsp; README&lt;br style=&quot;font-size: 12px&quot;&gt;&amp;nbsp; &amp;nbsp; LICENCE&lt;br style=&quot;font-size: 12px&quot;&gt;&amp;nbsp; &amp;nbsp; ...&lt;/font&gt;&lt;/td&gt;&lt;/tr&gt;&lt;tr style=&quot;font-size: 12px&quot;&gt;&lt;td style=&quot;font-size: 12px&quot;&gt;Github&lt;/td&gt;&lt;td style=&quot;font-size: 12px&quot;&gt;&lt;font face=&quot;Courier New&quot; style=&quot;font-size: 12px&quot;&gt;git remote add origin git@github.com:user/repo.git&lt;br style=&quot;font-size: 12px&quot;&gt;git push -u|--set-upstream origin master&lt;/font&gt;&lt;/td&gt;&lt;/tr&gt;&lt;tr style=&quot;font-size: 12px&quot;&gt;&lt;td style=&quot;font-size: 12px&quot;&gt;Initialization&lt;/td&gt;&lt;td style=&quot;font-size: 12px&quot;&gt;&lt;h3 style=&quot;font-size: 12px&quot;&gt;Local&lt;/h3&gt;&lt;ol style=&quot;font-size: 12px&quot;&gt;&lt;li style=&quot;font-size: 12px&quot;&gt;&lt;font face=&quot;Courier New&quot; style=&quot;font-size: 12px&quot;&gt;git init&lt;/font&gt; - creates a repo using the current folder&lt;/li&gt;&lt;li style=&quot;font-size: 12px&quot;&gt;&lt;font face=&quot;Courier New&quot; style=&quot;font-size: 12px&quot;&gt;git init repo-name&lt;/font&gt; - create a new &lt;font face=&quot;Courier New&quot;&gt;repo-name&lt;/font&gt; repo&lt;/li&gt;&lt;/ol&gt;&lt;h3 style=&quot;font-size: 12px&quot;&gt;Clone&lt;/h3&gt;&lt;div style=&quot;font-size: 12px&quot;&gt;&lt;font face=&quot;Courier New&quot; style=&quot;font-size: 12px&quot;&gt;git clone remote-repo local_name&amp;lt;?&amp;gt;&lt;br style=&quot;font-size: 12px&quot;&gt;&lt;/font&gt;&lt;/div&gt;&lt;div style=&quot;font-size: 12px&quot;&gt;&lt;font face=&quot;Courier New&quot; style=&quot;font-size: 12px&quot;&gt;&lt;br style=&quot;font-size: 12px&quot;&gt;&lt;/font&gt;&lt;/div&gt;&lt;div style=&quot;font-size: 12px&quot;&gt;Remote-repo can be:&lt;/div&gt;&lt;div style=&quot;font-size: 12px&quot;&gt;&lt;ol style=&quot;font-size: 12px&quot;&gt;&lt;li style=&quot;font-size: 12px&quot;&gt;&lt;font face=&quot;Courier New&quot; style=&quot;font-size: 12px&quot;&gt;local: git clone /opt/git/project.git&lt;/font&gt;&lt;/li&gt;&lt;li style=&quot;font-size: 12px&quot;&gt;&lt;font face=&quot;Courier New&quot; style=&quot;font-size: 12px&quot;&gt;git: git clone git://example.com/path/to/repo.git/&lt;/font&gt;&lt;/li&gt;&lt;li style=&quot;font-size: 12px&quot;&gt;&lt;font face=&quot;Courier New&quot; style=&quot;font-size: 12px&quot;&gt;http[s]: git clone http[s]://example.com/path/to/repo.git/,&amp;nbsp;&lt;/font&gt;&lt;/li&gt;&lt;li style=&quot;font-size: 12px&quot;&gt;&lt;font face=&quot;Courier New&quot; style=&quot;font-size: 12px&quot;&gt;ssh: git clone [ssh://example.com/path/to/repo.git/,&amp;nbsp;user@example.com:path/to/repo.git]&lt;/font&gt;&lt;/li&gt;&lt;li style=&quot;font-size: 12px&quot;&gt;&lt;span style=&quot;font-family: &amp;#34;courier new&amp;#34; ; font-size: 12px&quot;&gt;ftp[s]: git clone ftp[s]://example.com/path/to/repo.git/&lt;/span&gt;&lt;br style=&quot;font-size: 12px&quot;&gt;&lt;/li&gt;&lt;li style=&quot;font-size: 12px&quot;&gt;&lt;font face=&quot;Courier New&quot; style=&quot;font-size: 12px&quot;&gt;rsync: git clone rsync://example.com/path/to/repo.git/&lt;/font&gt;&lt;/li&gt;&lt;li style=&quot;font-size: 12px&quot;&gt;&lt;font face=&quot;Courier New&quot; style=&quot;font-size: 12px&quot;&gt;file: git clone file:///opt/git/project.git&lt;/font&gt;&lt;/li&gt;&lt;/ol&gt;&lt;/div&gt;&lt;/td&gt;&lt;/tr&gt;&lt;tr&gt;&lt;td&gt;Remote&lt;br&gt;&lt;/td&gt;&lt;td&gt;&lt;ol&gt;&lt;li&gt;&lt;font face=&quot;Courier New&quot;&gt;git remote&lt;/font&gt;&amp;nbsp;- lists remote hosts&lt;/li&gt;&lt;li&gt;&lt;font face=&quot;Courier New&quot;&gt;git remote -v&lt;/font&gt;&amp;nbsp;- lists remote information&lt;/li&gt;&lt;li&gt;&lt;font face=&quot;Courier New&quot;&gt;git remote show hostname&lt;/font&gt;&amp;nbsp;- shows detail information about remote&amp;nbsp;&lt;font face=&quot;Courier New&quot;&gt;hostname&lt;/font&gt;&lt;/li&gt;&lt;li&gt;&lt;font face=&quot;Courier New&quot;&gt;git remote add origin git@github.com:your/repo.git&lt;/font&gt;&amp;nbsp;- adds a remote, and names it&amp;nbsp;&lt;font face=&quot;Courier New&quot;&gt;origin&lt;/font&gt;&lt;/li&gt;&lt;li&gt;&lt;font face=&quot;Courier New&quot;&gt;git remote rm origin&lt;/font&gt;&amp;nbsp;- removes remote&amp;nbsp;&lt;font face=&quot;Courier New&quot;&gt;origin&lt;/font&gt;&lt;/li&gt;&lt;li&gt;&lt;font face=&quot;Courier New&quot;&gt;git rename pb paul&lt;/font&gt;&amp;nbsp;- renames host name from &lt;font face=&quot;Courier New&quot;&gt;pb&lt;/font&gt; to &lt;font face=&quot;Courier New&quot;&gt;paul&lt;/font&gt;&lt;/li&gt;&lt;/ol&gt;&lt;/td&gt;&lt;/tr&gt;&lt;tr style=&quot;font-size: 12px&quot;&gt;&lt;td style=&quot;font-size: 12px&quot;&gt;&lt;span&gt;Branch&lt;/span&gt;&lt;br&gt;&lt;/td&gt;&lt;td&gt;&lt;h3&gt;Branch&lt;/h3&gt;&lt;ol&gt;&lt;li style=&quot;font-size: 12px&quot;&gt;&lt;span style=&quot;font-family: &amp;#34;courier new&amp;#34; ; font-size: 12px&quot;&gt;git branch new-branch&lt;/span&gt;&lt;span style=&quot;font-size: 12px&quot;&gt; - creates a new branch &lt;/span&gt;&lt;span style=&quot;font-family: &amp;#34;courier new&amp;#34; ; font-size: 12px&quot;&gt;new-branch&lt;/span&gt;&lt;span style=&quot;font-size: 12px&quot;&gt; using current branch&lt;/span&gt;&lt;br style=&quot;font-size: 12px&quot;&gt;&lt;/li&gt;&lt;li style=&quot;font-size: 12px&quot;&gt;&lt;font face=&quot;Courier New&quot; style=&quot;font-size: 12px&quot;&gt;git branch -d deleted-branch&lt;/font&gt; - deletes branch &lt;font face=&quot;Courier New&quot; style=&quot;font-size: 12px&quot;&gt;deleted-branch&lt;/font&gt;&lt;/li&gt;&lt;li style=&quot;font-size: 12px&quot;&gt;&lt;font face=&quot;Courier New&quot; style=&quot;font-size: 12px&quot;&gt;git branch&lt;/font&gt; - list local branches&lt;/li&gt;&lt;li style=&quot;font-size: 12px&quot;&gt;&lt;span style=&quot;font-family: &amp;#34;courier new&amp;#34; ; font-size: 12px&quot;&gt;git branch -r&lt;/span&gt;&lt;span style=&quot;font-size: 12px&quot;&gt; - lists remote branches&lt;/span&gt;&lt;br style=&quot;font-size: 12px&quot;&gt;&lt;/li&gt;&lt;li style=&quot;font-size: 12px&quot;&gt;&lt;font face=&quot;Courier New&quot; style=&quot;font-size: 12px&quot;&gt;git branch -a&lt;/font&gt; - lists all branches, remote and local&lt;/li&gt;&lt;li&gt;&lt;font face=&quot;Courier New&quot;&gt;git branch -vv&lt;/font&gt;&amp;nbsp;- list local and tracking branches&lt;/li&gt;&lt;li style=&quot;font-size: 12px&quot;&gt;&lt;font face=&quot;Courier New&quot;&gt;git branch --set-upstream branch-name origin/branch-name&lt;/font&gt;&lt;span&gt; - tracking between local branch and remote branch&lt;/span&gt;&lt;br&gt;&lt;/li&gt;&lt;/ol&gt;&lt;h3&gt;Checkout&lt;/h3&gt;&lt;div&gt;&lt;ol&gt;&lt;li&gt;&lt;font face=&quot;Courier New&quot;&gt;git checkout master&lt;/font&gt;&amp;nbsp;- swithes to&amp;nbsp;&lt;font face=&quot;Courier New&quot;&gt;master&lt;/font&gt;&amp;nbsp;branch&lt;/li&gt;&lt;li&gt;&lt;span style=&quot;font-family: &amp;#34;courier new&amp;#34;&quot;&gt;git chechout -b new-branch&lt;/span&gt;&amp;nbsp;- creates a new branch named&amp;nbsp;&lt;font face=&quot;Courier New&quot;&gt;new-branch&lt;/font&gt;&amp;nbsp;and switches to the new branch&lt;br&gt;&lt;/li&gt;&lt;li&gt;&lt;font face=&quot;Courier New&quot;&gt;git checkout --track origin/branch-name&lt;/font&gt;&amp;nbsp;- create a local&amp;nbsp;&lt;font face=&quot;Courier New&quot;&gt;branch-name&lt;/font&gt;&amp;nbsp;tracking&amp;nbsp;&lt;font face=&quot;Courier New&quot;&gt;origin/branch-name&lt;/font&gt;&lt;/li&gt;&lt;li&gt;&lt;font face=&quot;Courier New&quot;&gt;git push --set-upstream origin branch-name&lt;/font&gt;&amp;nbsp;- create a remote&amp;nbsp;&lt;font face=&quot;Courier New&quot;&gt;branch-name&amp;nbsp;&lt;/font&gt;(if not existing)&lt;font face=&quot;Courier New&quot;&gt;&amp;nbsp;&lt;/font&gt;tracking with local&lt;/li&gt;&lt;/ol&gt;&lt;/div&gt;&lt;/td&gt;&lt;/tr&gt;&lt;tr&gt;&lt;td&gt;Operation&lt;/td&gt;&lt;td&gt;&lt;h3&gt;Stage&lt;/h3&gt;&lt;div&gt;&lt;ol&gt;&lt;li&gt;&lt;font face=&quot;Courier New&quot;&gt;git add --all&lt;/font&gt; - stages all updates&lt;/li&gt;&lt;/ol&gt;&lt;/div&gt;&lt;h3&gt;Commit&lt;/h3&gt;&lt;div&gt;&lt;ol&gt;&lt;li&gt;git commit -m &quot;commit message&quot;&lt;/li&gt;&lt;/ol&gt;&lt;/div&gt;&lt;h3&gt;Merge&lt;/h3&gt;&lt;ol&gt;&lt;li&gt;&lt;font face=&quot;Courier New&quot;&gt;git merge other-branch&lt;/font&gt; - merges&amp;nbsp;&lt;font face=&quot;Courier New&quot;&gt;other-branch&lt;/font&gt; with current branch&lt;/li&gt;&lt;/ol&gt;&lt;h3&gt;Diff&lt;/h3&gt;&lt;div&gt;&lt;ol&gt;&lt;li&gt;&lt;font face=&quot;Courier New&quot;&gt;git diff&lt;/font&gt;&amp;nbsp;- differences between working tree and staged&lt;/li&gt;&lt;li&gt;&lt;font face=&quot;Courier New&quot;&gt;git diff HEAD&lt;/font&gt;&amp;nbsp;- between working tree and HEAD&amp;nbsp;(last commit)&lt;/li&gt;&lt;li&gt;&lt;font face=&quot;Courier New&quot;&gt;git diff [--cached, --staged]&lt;/font&gt;&amp;nbsp;- between staged and HEAD&lt;/li&gt;&lt;li&gt;&lt;font face=&quot;Courier New&quot;&gt;git diff &amp;lt;source_branch&amp;gt; &amp;lt;target_branch&amp;gt;&lt;/font&gt;&amp;nbsp;- between different branches&lt;/li&gt;&lt;/ol&gt;&lt;/div&gt;&lt;/td&gt;&lt;/tr&gt;&lt;/tbody&gt;&lt;/table&gt; " style="verticalAlign=top;align=left;overflow=fill;fontSize=12;fontFamily=Helvetica;html=1" parent="1" vertex="1">
                    <mxGeometry x="7" y="5" width="815" height="1155" as="geometry"/>
                </mxCell>
            </root>
        </mxGraphModel>
    </diagram>
</mxfile>